<svg width="432" height="272" viewBox="0 0 432 272" fill="none" xmlns="http://www.w3.org/2000/svg">
<rect x="77.014" y="140" width="186.368" height="91" fill="#4E3F8F"/>
<ellipse cx="149.983" cy="122" rx="57.1922" ry="58" fill="#7E4C4C"/>
<mask id="mask0_2_52" style="mask-type:luminance" maskUnits="userSpaceOnUse" x="152" y="0" width="280" height="265">
<path d="M152.192 25.3833L406.445 -5.16393e-05L432 239.252L177.747 264.635L152.192 25.3833Z" fill="white"/>
</mask>
<g mask="url(#mask0_2_52)">
<mask id="mask1_2_52" style="mask-type:luminance" maskUnits="userSpaceOnUse" x="152" y="0" width="280" height="265">
<path d="M152.192 25.3833L406.445 -5.16393e-05L432 239.252L177.747 264.635L152.192 25.3833Z" fill="white"/>
</mask>
<g mask="url(#mask1_2_52)">
<path d="M262.712 201.684L214.249 222.452L225.902 173.548L252.55 179.609L262.712 201.684Z" fill="#EBE6EE"/>
<path d="M214.25 222.452L230.674 215.413L224.558 210.739L218.199 205.878L214.25 222.452Z" fill="#393346"/>
<g style="mix-blend-mode:multiply" opacity="0.5">
<path d="M237.245 182.217L225.902 173.547L215.552 216.985L215.548 217.003C215.453 217.395 215.451 217.8 215.54 218.192C215.63 218.584 215.81 218.951 216.068 219.27L237.245 182.217Z" fill="#EBE6EE"/>
</g>
<path d="M225.902 173.549L243.494 186.995L262.712 201.684L367.268 81.6365L330.457 53.5014L225.902 173.549Z" fill="#FFC638"/>
<g style="mix-blend-mode:multiply">
<path d="M330.525 53.5326L341.817 62.1635L237.312 182.25L225.97 173.58L330.525 53.5326Z" fill="#FFC638" fill-opacity="0.5"/>
</g>
<path d="M327.751 56.3367C327.519 57.1094 340.525 66.3564 347.1 71.3828C352.794 75.7348 363.53 84.4616 364.494 84.5493C364.83 84.527 382.513 62.6582 382.987 62.6806C382.602 62.0864 371.226 53.6912 365.345 49.1965C358.956 44.3123 346.946 34.5683 346.177 34.5455C346.531 34.8998 327.873 56.064 327.75 56.3367" fill="#F8C8C0"/>
<g style="mix-blend-mode:multiply">
<path d="M357.473 43.3068L346.181 34.6759L327.754 56.4671L338.669 65.0653L357.473 43.3068Z" fill="#F8C8C0" fill-opacity="0.5"/>
</g>
<path d="M327.591 56.0014L346.394 34.2429L383.205 62.3785L364.401 84.1371M225.853 173.554L214.201 222.457L262.663 201.689M225.902 173.548L262.712 201.684L364.253 84.1856L327.442 56.0511L225.902 173.548Z" stroke="#121330" stroke-width="7" stroke-linecap="round" stroke-linejoin="round"/>
<path d="M330.805 87.5254L295.078 128.867" stroke="#121330" stroke-width="7" stroke-linecap="round" stroke-linejoin="round"/>
</g>
</g>
<path d="M18.2423 94L22.338 107.129H35.5918L24.8693 115.243L28.9649 128.371L18.2423 120.257L7.51976 128.371L11.6154 115.243L0.892843 107.129H14.1467L18.2423 94Z" fill="#39B533"/>
<path d="M199.187 0L204.278 15.2016H220.756L207.425 24.5967L212.517 39.7984L199.187 30.4033L185.856 39.7984L190.948 24.5967L177.617 15.2016H194.095L199.187 0Z" fill="#B53395"/>
<path d="M312.092 232L316.409 245.82H330.379L319.077 254.361L323.394 268.18L312.092 259.639L300.79 268.18L305.107 254.361L293.805 245.82H307.775L312.092 232Z" fill="#B53333"/>
</svg>
